<svg width="52" height="47" viewBox="0 0 52 47" fill="none" xmlns="http://www.w3.org/2000/svg">
<path d="M37.9943 40.6934C37.6566 40.6946 37.3236 40.6215 37.0231 40.4802L26.2549 35.3063L15.4868 40.4802C15.1372 40.6489 14.7429 40.7243 14.3489 40.6976C13.955 40.671 13.577 40.5434 13.2581 40.3294C12.9392 40.1155 12.6921 39.8237 12.5448 39.4872C12.3976 39.1507 12.3562 38.7831 12.4253 38.4262L14.5367 27.5165L5.83774 19.7654C5.56634 19.5168 5.37381 19.2051 5.28081 18.8637C5.18782 18.5223 5.19787 18.1641 5.30989 17.8276C5.43227 17.4832 5.65738 17.1772 5.95968 16.9443C6.26197 16.7113 6.62935 16.5609 7.02012 16.5099L19.0551 14.9015L24.3547 4.96073C24.5276 4.63311 24.7975 4.35681 25.1336 4.16348C25.4697 3.97015 25.8583 3.86761 26.2549 3.86761C26.6516 3.86761 27.0402 3.97015 27.3763 4.16348C27.7124 4.35681 27.9823 4.63311 28.1552 4.96073L33.5181 14.8822L45.5531 16.4905C45.9439 16.5415 46.3113 16.692 46.6135 16.9249C46.9158 17.1578 47.141 17.4638 47.2633 17.8082C47.3754 18.1447 47.3854 18.5029 47.2924 18.8443C47.1994 19.1857 47.0069 19.4974 46.7355 19.746L38.0365 27.4971L40.1479 38.4068C40.2233 38.7701 40.1838 39.1456 40.0342 39.4889C39.8845 39.8323 39.6309 40.1292 39.3034 40.3446C38.921 40.5905 38.4607 40.7131 37.9943 40.6934Z" fill="#FCC419"/>
</svg>
